<mxfile host="65bd71144e">
    <diagram id="xqMWFAWOM7p3nKXhT-H_" name="Page-1">
        <mxGraphModel dx="857" dy="614" grid="0" gridSize="10" guides="1" tooltips="1" connect="1" arrows="1" fold="1" page="0" pageScale="1" pageWidth="4681" pageHeight="3300" background="#ffffff" math="0" shadow="0">
            <root>
                <mxCell id="0"/>
                <mxCell id="1" parent="0"/>
                <mxCell id="63" style="edgeStyle=none;html=1;exitX=0.5;exitY=1;exitDx=0;exitDy=0;entryX=0.5;entryY=0;entryDx=0;entryDy=0;strokeWidth=2;fontFamily=Comic Sans MS;fontSize=20;endArrow=none;endFill=0;startArrow=diamondThin;startFill=1;" parent="1" source="30" target="33" edge="1">
                    <mxGeometry relative="1" as="geometry"/>
                </mxCell>
                <mxCell id="75" value="has" style="edgeLabel;html=1;align=center;verticalAlign=middle;resizable=0;points=[];fontSize=20;fontFamily=Comic Sans MS;" parent="63" vertex="1" connectable="0">
                    <mxGeometry x="0.2582" y="-1" relative="1" as="geometry">
                        <mxPoint x="-1" y="-17" as="offset"/>
                    </mxGeometry>
                </mxCell>
                <mxCell id="30" value="&lt;font style=&quot;font-size: 25px;&quot; face=&quot;Comic Sans MS&quot;&gt;Card&lt;/font&gt;" style="html=1;fontSize=15;" parent="1" vertex="1">
                    <mxGeometry x="479" y="208" width="160" height="80" as="geometry"/>
                </mxCell>
                <mxCell id="60" style="edgeStyle=none;html=1;endArrow=diamondThin;endFill=1;strokeWidth=2;startArrow=none;startFill=0;" parent="1" source="32" target="30" edge="1">
                    <mxGeometry relative="1" as="geometry"/>
                </mxCell>
                <mxCell id="78" value="consists" style="edgeLabel;html=1;align=center;verticalAlign=middle;resizable=0;points=[];fontSize=20;fontFamily=Comic Sans MS;" parent="60" vertex="1" connectable="0">
                    <mxGeometry x="-0.1415" relative="1" as="geometry">
                        <mxPoint x="14" as="offset"/>
                    </mxGeometry>
                </mxCell>
                <mxCell id="64" style="edgeStyle=none;html=1;entryX=0.5;entryY=0;entryDx=0;entryDy=0;strokeWidth=2;fontFamily=Comic Sans MS;fontSize=20;endArrow=none;endFill=0;startArrow=diamondThin;startFill=1;" parent="1" source="32" target="34" edge="1">
                    <mxGeometry relative="1" as="geometry"/>
                </mxCell>
                <mxCell id="80" value="has" style="edgeLabel;html=1;align=center;verticalAlign=middle;resizable=0;points=[];fontSize=20;fontFamily=Comic Sans MS;" parent="64" vertex="1" connectable="0">
                    <mxGeometry x="0.1329" y="-3" relative="1" as="geometry">
                        <mxPoint x="-1" y="-8" as="offset"/>
                    </mxGeometry>
                </mxCell>
                <mxCell id="32" value="&lt;font style=&quot;font-size: 25px;&quot; face=&quot;Comic Sans MS&quot;&gt;Deck&lt;/font&gt;" style="html=1;fontSize=15;" parent="1" vertex="1">
                    <mxGeometry x="126" y="208" width="160" height="80" as="geometry"/>
                </mxCell>
                <mxCell id="33" value="&lt;font style=&quot;font-size: 25px;&quot; face=&quot;Comic Sans MS&quot;&gt;Player&lt;/font&gt;" style="html=1;fontSize=15;" parent="1" vertex="1">
                    <mxGeometry x="479" y="421" width="160" height="80" as="geometry"/>
                </mxCell>
                <mxCell id="65" style="edgeStyle=none;html=1;exitX=1;exitY=0.5;exitDx=0;exitDy=0;entryX=0;entryY=0.5;entryDx=0;entryDy=0;strokeWidth=2;fontFamily=Comic Sans MS;fontSize=20;endArrow=diamondThin;endFill=1;" parent="1" source="34" target="33" edge="1">
                    <mxGeometry relative="1" as="geometry"/>
                </mxCell>
                <mxCell id="79" value="consists" style="edgeLabel;html=1;align=center;verticalAlign=middle;resizable=0;points=[];fontSize=20;fontFamily=Comic Sans MS;" parent="65" vertex="1" connectable="0">
                    <mxGeometry x="-0.1726" relative="1" as="geometry">
                        <mxPoint x="17" as="offset"/>
                    </mxGeometry>
                </mxCell>
                <mxCell id="34" value="&lt;font style=&quot;font-size: 25px;&quot; face=&quot;Comic Sans MS&quot;&gt;Game&lt;/font&gt;" style="html=1;fontSize=15;" parent="1" vertex="1">
                    <mxGeometry x="126" y="421" width="160" height="80" as="geometry"/>
                </mxCell>
                <mxCell id="68" value="1" style="text;align=center;fontStyle=1;verticalAlign=middle;spacingLeft=3;spacingRight=3;strokeColor=none;rotatable=0;points=[[0,0.5],[1,0.5]];portConstraint=eastwest;fontFamily=Comic Sans MS;fontSize=20;" parent="1" vertex="1">
                    <mxGeometry x="211" y="395" width="11" height="26" as="geometry"/>
                </mxCell>
                <mxCell id="70" value="1" style="text;align=center;fontStyle=1;verticalAlign=middle;spacingLeft=3;spacingRight=3;strokeColor=none;rotatable=0;points=[[0,0.5],[1,0.5]];portConstraint=eastwest;fontFamily=Comic Sans MS;fontSize=20;" parent="1" vertex="1">
                    <mxGeometry x="210" y="288" width="13" height="26" as="geometry"/>
                </mxCell>
                <mxCell id="71" value="1" style="text;align=center;fontStyle=1;verticalAlign=middle;spacingLeft=3;spacingRight=3;strokeColor=none;rotatable=0;points=[[0,0.5],[1,0.5]];portConstraint=eastwest;fontFamily=Comic Sans MS;fontSize=20;" parent="1" vertex="1">
                    <mxGeometry x="291" y="432" width="11" height="26" as="geometry"/>
                </mxCell>
                <mxCell id="72" value="*" style="text;align=center;fontStyle=1;verticalAlign=middle;spacingLeft=3;spacingRight=3;strokeColor=none;rotatable=0;points=[[0,0.5],[1,0.5]];portConstraint=eastwest;fontFamily=Comic Sans MS;fontSize=20;" parent="1" vertex="1">
                    <mxGeometry x="463" y="441" width="13" height="17" as="geometry"/>
                </mxCell>
                <mxCell id="73" value="*" style="text;align=center;fontStyle=1;verticalAlign=middle;spacingLeft=3;spacingRight=3;strokeColor=none;rotatable=0;points=[[0,0.5],[1,0.5]];portConstraint=eastwest;fontFamily=Comic Sans MS;fontSize=20;" parent="1" vertex="1">
                    <mxGeometry x="463" y="251" width="13" height="17" as="geometry"/>
                </mxCell>
                <mxCell id="74" value="1" style="text;align=center;fontStyle=1;verticalAlign=middle;spacingLeft=3;spacingRight=3;strokeColor=none;rotatable=0;points=[[0,0.5],[1,0.5]];portConstraint=eastwest;fontFamily=Comic Sans MS;fontSize=20;" parent="1" vertex="1">
                    <mxGeometry x="291" y="249" width="11" height="26" as="geometry"/>
                </mxCell>
                <mxCell id="76" value="1" style="text;align=center;fontStyle=1;verticalAlign=middle;spacingLeft=3;spacingRight=3;strokeColor=none;rotatable=0;points=[[0,0.5],[1,0.5]];portConstraint=eastwest;fontFamily=Comic Sans MS;fontSize=20;" parent="1" vertex="1">
                    <mxGeometry x="544" y="393" width="11" height="26" as="geometry"/>
                </mxCell>
                <mxCell id="77" value="*" style="text;align=center;fontStyle=1;verticalAlign=middle;spacingLeft=3;spacingRight=3;strokeColor=none;rotatable=0;points=[[0,0.5],[1,0.5]];portConstraint=eastwest;fontFamily=Comic Sans MS;fontSize=20;" parent="1" vertex="1">
                    <mxGeometry x="544" y="294" width="13" height="17" as="geometry"/>
                </mxCell>
            </root>
        </mxGraphModel>
    </diagram>
</mxfile>